<svg width="76" height="76" viewBox="0 0 76 76" fill="none" xmlns="http://www.w3.org/2000/svg">
<circle cx="38" cy="38" r="38" fill="#0591CB" fill-opacity="0.09"/>
<path fill-rule="evenodd" clip-rule="evenodd" d="M51 26V50H27V26H51ZM37.1015 32H34.7642L30.3266 44H32.4353L33.2731 41.6541H38.5852L39.405 44H41.6407L37.1015 32ZM45.3838 32H43.2836V44H45.3838V32ZM35.9151 34.0133L38.0071 40H33.8564L35.9151 34.0133ZM53 44H57V48H53V44ZM29 52H33V56H29V52ZM37 52H41V56H37V52ZM29 20H33V24H29V20ZM45 52H49V56H45V52ZM37 20H41V24H37V20ZM45 20H49V24H45V20ZM53 36H57V40H53V36ZM21 44H25V48H21V44ZM53 28H57V32H53V28ZM21 36H25V40H21V36ZM21 28H25V32H21V28Z" fill="black"/>
</svg>
