<svg width="76" height="76" viewBox="0 0 76 76" fill="none" xmlns="http://www.w3.org/2000/svg">
<circle cx="38" cy="38" r="38" fill="#0591CB" fill-opacity="0.09"/>
<g clip-path="url(#clip0_214_39)">
<path d="M32.3115 30.9217C34.8389 36.9953 37.4627 43.3022 40.1255 49.7024C41.8975 50.1191 42.2876 50.5233 42.5353 52.5102C42.6527 53.449 42.7178 54.3935 42.73 55.3391C42.7508 57.0553 42.0312 57.8508 40.3235 57.8308C37.3888 57.7962 34.4555 57.6415 31.521 57.5732C30.3493 57.546 29.1738 57.5833 28.0034 57.6496C27.1292 57.6991 26.6319 57.4717 26.5616 56.6188C26.4023 54.9973 26.3464 53.3672 26.3943 51.7385C26.456 50.3815 27.3255 49.7194 28.7596 49.626C29.2146 49.5962 29.6728 49.6111 30.1295 49.6087C30.5825 49.6066 31.0355 49.6087 31.6497 49.6087C31.3223 48.4314 31.0551 47.3442 30.7173 46.2794C29.5061 42.4619 28.271 38.6518 27.0445 34.839C27.0054 34.7149 26.9499 34.595 26.9184 34.4692C26.697 33.5851 26.6929 32.5461 26.1984 31.8599C25.7452 31.2312 24.7313 31.0322 24.0211 30.5588C20.3119 28.0865 20.0768 22.1538 23.5589 19.3605C25.7693 17.5873 29.7028 17.7812 32.1011 19.81C32.5835 20.1986 33.0071 20.6552 33.3583 21.1656C33.4816 21.3922 33.6714 21.5755 33.9021 21.6908C34.1329 21.8061 34.3934 21.8479 34.6487 21.8105C38.4852 21.5417 42.3257 21.3227 46.1589 21.0133C48.475 20.8264 48.4707 20.7665 49.2985 22.9218C50.4435 22.7898 51.5977 22.6773 52.7434 22.5063C52.9619 22.4736 53.1834 22.2394 53.3392 22.0462C53.9732 21.2598 54.5882 20.4573 55.2004 19.6528C55.9977 18.6041 56.707 18.4035 57.9225 18.9334C58.5565 19.1923 59.1744 19.4889 59.773 19.8216C60.4756 20.234 60.7091 20.8931 60.4518 21.4673C60.1971 22.0355 59.5419 22.3037 58.7747 22.0897C58.364 21.984 57.9727 21.814 57.615 21.586C57.0553 21.2083 56.6747 21.3436 56.2953 21.8376C56.0267 22.166 55.738 22.4774 55.4312 22.77C54.4216 23.7925 54.3664 24.7425 55.2231 25.9047C55.8422 26.7444 56.4431 27.5971 57.0258 28.4629C57.3294 28.9135 57.6694 29.0124 58.1882 28.8434C58.7392 28.6433 59.3168 28.5273 59.9025 28.4991C60.2159 28.4962 60.7434 28.785 60.7941 29.023C60.8625 29.3441 60.6697 29.9111 60.404 30.0779C59.5416 30.6034 58.6401 31.0615 57.707 31.4481C56.9234 31.7843 56.2873 31.3894 55.8398 30.7693C55.0386 29.6601 54.2416 28.5414 53.5476 27.3655C53.2321 26.8316 52.8879 26.6365 52.3132 26.6341C51.661 26.6471 51.0088 26.6078 50.3627 26.5166C49.6717 26.4016 49.3522 26.7125 49.1047 27.2883C48.5863 28.4956 48.544 28.456 47.2031 28.4658C45.3779 28.4793 43.5525 28.6433 41.7285 28.6225C39.579 28.5979 37.4292 28.4713 35.2827 28.3287C34.7037 28.2895 34.3279 28.3483 33.9812 28.8798C33.5403 29.5565 32.9598 30.1429 32.3115 30.9217ZM32.8048 25.5283C32.7404 22.3962 30.4459 20.1814 27.3686 20.2814C24.8896 20.3619 23.1308 22.319 23.1655 24.9567C23.2017 27.7023 25.1535 29.6631 27.8909 29.5708C30.941 29.4683 33.0597 27.2117 32.8048 25.5283ZM28.2887 31.8002C28.2884 31.9439 28.3033 32.0872 28.3331 32.2277C28.841 33.6699 29.3733 35.1034 29.8668 36.5503C31.2829 40.7023 32.6771 44.8617 34.1067 49.0087C34.2047 49.2902 34.5031 49.6729 34.7447 49.7015C35.5033 49.7914 36.2795 49.7344 37.1396 49.7344L30.3288 31.4213L28.2887 31.8002ZM35.0779 26.7809L47.3109 26.4372C47.2233 26.0107 47.1563 25.7014 47.0967 25.3906C47.0293 25.0391 46.9641 24.6871 46.9057 24.334C46.7333 23.2907 46.7349 23.2899 45.6714 23.2937C42.4465 23.3053 39.2217 23.317 35.997 23.3288C35.5889 23.3303 35.1806 23.3288 34.7652 23.3288C34.8667 24.4524 34.9602 25.4823 35.0779 26.7809ZM28.6748 55.1717H39.8937V52.0779H28.8598C28.7941 53.1708 28.7348 54.1657 28.6748 55.1717Z" fill="black"/>
<path d="M27.6175 27.1291C26.5335 27.114 25.5985 26.5413 25.3564 25.7415C25.0695 24.7954 25.4653 23.7416 26.3556 23.0827C27.9586 21.8952 29.6145 22.3176 30.1412 24.0484C30.6324 25.6657 29.4137 27.1541 27.6175 27.1291Z" fill="black"/>
</g>
<defs>
<clipPath id="clip0_214_39">
<rect width="40" height="40" fill="white" transform="translate(21 18)"/>
</clipPath>
</defs>
</svg>
