<svg width="87" height="81" viewBox="0 0 87 81" fill="none" xmlns="http://www.w3.org/2000/svg">
<circle cx="38" cy="38" r="38" fill="#0591CB" fill-opacity="0.09"/>
<path d="M46.3623 71.0677V63.4699L46.4095 62.7755C47.0173 53.8408 53.4771 46.4199 62.1846 44.6536C64.5303 44.1778 66.9464 44.1778 69.2921 44.6536C77.9995 46.4199 84.4595 53.8408 85.0671 62.7755L85.1144 63.4699V71.0677M72.6936 72.5578C72.3655 70.8567 72.3655 69.1079 72.6936 67.4069C73.2206 64.6728 75.2289 62.4706 77.8867 61.7122L78.4504 61.5512C79.0365 61.3839 79.6426 61.2992 80.2516 61.2992C82.9373 61.2992 85.1144 63.4944 85.1144 66.2024V73.7622C85.1144 76.4703 82.9373 78.6655 80.2516 78.6655C79.6426 78.6655 79.0365 78.5807 78.4504 78.4134L77.8867 78.2525C75.2289 77.4939 73.2206 75.2918 72.6936 72.5578ZM58.7831 72.5578C59.1111 70.8567 59.1111 69.1079 58.7831 67.4069C58.256 64.6728 56.2478 62.4706 53.59 61.7122L53.0262 61.5512C52.4402 61.3839 51.8341 61.2992 51.2251 61.2992C48.5394 61.2992 46.3623 63.4944 46.3623 66.2024V73.7622C46.3623 76.4703 48.5394 78.6655 51.2251 78.6655C51.8341 78.6655 52.4402 78.5807 53.0262 78.4134L53.59 78.2525C56.2478 77.4939 58.256 75.2918 58.7831 72.5578Z" stroke="black" stroke-width="3"/>
</svg>
