<svg width="76" height="76" viewBox="0 0 76 76" fill="none" xmlns="http://www.w3.org/2000/svg">
<circle cx="38" cy="38" r="38" fill="#0591CB" fill-opacity="0.09"/>
<path d="M29.5977 29.7734C29.5977 30.4417 29.8631 31.0825 30.3356 31.555C30.8081 32.0275 31.449 32.293 32.1172 32.293C32.7854 32.293 33.4263 32.0275 33.8988 31.555C34.3713 31.0825 34.6367 30.4417 34.6367 29.7734C34.6367 29.1052 34.3713 28.4644 33.8988 27.9919C33.4263 27.5194 32.7854 27.2539 32.1172 27.2539C31.449 27.2539 30.8081 27.5194 30.3356 27.9919C29.8631 28.4644 29.5977 29.1052 29.5977 29.7734ZM52.7773 18.6875H24.2227C23.4794 18.6875 22.8789 19.288 22.8789 20.0312V47.7461C22.8789 48.4894 23.4794 49.0898 24.2227 49.0898H52.7773C53.5206 49.0898 54.1211 48.4894 54.1211 47.7461V20.0312C54.1211 19.288 53.5206 18.6875 52.7773 18.6875ZM51.4336 46.4023H25.5664V21.375H51.4336V46.4023ZM42.3633 29.7734C42.3633 30.4417 42.6287 31.0825 43.1012 31.555C43.5737 32.0275 44.2146 32.293 44.8828 32.293C45.551 32.293 46.1919 32.0275 46.6644 31.555C47.1369 31.0825 47.4023 30.4417 47.4023 29.7734C47.4023 29.1052 47.1369 28.4644 46.6644 27.9919C46.1919 27.5194 45.551 27.2539 44.8828 27.2539C44.2146 27.2539 43.5737 27.5194 43.1012 27.9919C42.6287 28.4644 42.3633 29.1052 42.3633 29.7734ZM52.8697 53.1211H24.1303C23.4374 53.1211 22.8789 53.7216 22.8789 54.4648V55.9766C22.8789 56.1613 23.0175 56.3125 23.1896 56.3125H53.8062C53.9783 56.3125 54.1169 56.1613 54.1169 55.9766V54.4648C54.1211 53.7216 53.5626 53.1211 52.8697 53.1211ZM44.8828 37.332H32.1172C31.9324 37.332 31.7812 37.4832 31.7812 37.668V40.1875C31.7812 40.3723 31.9324 40.5234 32.1172 40.5234H44.8828C45.0676 40.5234 45.2188 40.3723 45.2188 40.1875V37.668C45.2188 37.4832 45.0676 37.332 44.8828 37.332Z" fill="black"/>
</svg>
