<svg width="76" height="76" viewBox="0 0 76 76" fill="none" xmlns="http://www.w3.org/2000/svg">
<circle cx="38" cy="38" r="38" fill="#0591CB" fill-opacity="0.09"/>
<g clip-path="url(#clip0_214_42)">
<path d="M52.375 45.75C52.375 48.3053 50.3053 50.375 47.75 50.375C45.1947 50.375 43.125 48.3053 43.125 45.75C43.125 43.1947 45.1947 41.125 47.75 41.125C50.3053 41.125 52.375 43.1947 52.375 45.75Z" fill="black"/>
<path d="M47.0562 55C45.2062 55 43.3562 54.5375 41.7375 53.3813L27.4 45.75C26.2438 44.825 25.3187 44.3625 24.3937 43.4375C21.6187 40.6625 20 36.7313 20 32.8C20 28.8688 21.6187 25.1688 24.3937 22.3937C27.1688 19.6187 30.8688 18 34.8 18C38.7313 18 42.4312 19.6187 45.4375 22.3937C46.3625 23.3187 46.825 24.0125 47.75 25.1687L55.8438 39.9688C58.1562 43.9 57.4625 48.7563 54.225 51.9937C52.1437 54.075 49.8312 55 47.0562 55ZM34.8 20.3125C31.5625 20.3125 28.325 21.7 26.0125 24.0125C23.7 26.325 22.3125 29.5625 22.3125 32.8C22.3125 36.2688 23.7 39.275 26.0125 41.5875C26.7062 42.2812 27.4 42.7437 28.5563 43.4375L43.125 51.3C44.5125 52.225 45.9 52.4562 47.2875 52.4562C49.3687 52.4562 51.2188 51.7625 52.6063 50.1437C55.15 47.6 55.6125 43.9 53.7625 40.8937L45.6688 26.0938C44.975 25.1687 44.5125 24.475 43.8188 23.7812C41.275 21.7 38.2688 20.3125 34.8 20.3125Z" fill="black"/>
<path d="M45.4375 34.1875V31.875L42.2 30.7188C41.9688 30.2562 41.9688 30.025 41.7375 29.5625L43.125 26.5563L41.5063 24.9375L38.5 26.325C38.0375 26.0937 37.8062 26.0938 37.3438 25.8625L36.1875 22.625H33.875L32.7188 25.8625C32.2562 26.0938 32.025 26.0937 31.5625 26.325L28.5563 24.9375L26.9375 26.5563L28.325 29.5625C28.0937 30.025 28.0938 30.2562 27.8625 30.7188L24.625 31.875V34.1875L27.8625 35.3438C28.0938 35.8062 28.0937 36.0375 28.325 36.5L26.9375 39.5063L28.5563 41.125L31.5625 39.7375C32.025 39.9688 32.2562 40.2 32.7188 40.2L33.875 43.4375H36.1875L37.3438 40.2C37.8062 39.9688 38.0375 39.9688 38.5 39.7375L41.5063 41.125L43.125 39.5063L41.7375 36.5C41.9688 36.0375 42.2 35.8062 42.2 35.3438L45.4375 34.1875ZM35.0312 36.5C33.1812 36.5 31.5625 34.8813 31.5625 33.0312C31.5625 31.1812 33.1812 29.5625 35.0312 29.5625C36.8813 29.5625 38.5 31.1812 38.5 33.0312C38.5 34.8813 36.8813 36.5 35.0312 36.5Z" fill="black"/>
</g>
<defs>
<clipPath id="clip0_214_42">
<rect width="37" height="37" fill="white" transform="translate(20 18)"/>
</clipPath>
</defs>
</svg>
