<svg width="76" height="76" viewBox="0 0 76 76" fill="none" xmlns="http://www.w3.org/2000/svg">
<circle cx="38" cy="38" r="38" fill="#0591CB" fill-opacity="0.09"/>
<path d="M44.4209 43.1479C41.3214 43.1479 38.7998 45.6475 38.7998 48.7199C38.7998 51.7922 41.3213 54.2915 44.4209 54.2915C47.5204 54.2915 50.0421 51.7922 50.0421 48.7199C50.0421 45.6475 47.5204 43.1479 44.4209 43.1479ZM44.4209 52.7305C42.1898 52.7305 40.3746 50.9313 40.3746 48.7199C40.3746 46.5083 42.1897 44.7089 44.4209 44.7089C46.6521 44.7089 48.4673 46.5083 48.4673 48.7199C48.4673 50.9313 46.6521 52.7305 44.4209 52.7305Z" fill="black"/>
<path d="M44.4208 46.464C43.1659 46.464 42.145 47.4759 42.145 48.72C42.145 49.9638 43.1659 50.9758 44.4208 50.9758C45.6757 50.9758 46.6966 49.9638 46.6966 48.72C46.6967 47.4759 45.6757 46.464 44.4208 46.464Z" fill="black"/>
<path d="M24.6983 43.1479C21.5988 43.1479 19.0771 45.6475 19.0771 48.7199C19.0771 51.7922 21.5988 54.2915 24.6983 54.2915C27.7979 54.2915 30.3195 51.7922 30.3195 48.7199C30.3194 45.6475 27.7978 43.1479 24.6983 43.1479ZM24.6983 52.7305C22.4671 52.7305 20.6519 50.9313 20.6519 48.7199C20.6519 46.5083 22.4671 44.7089 24.6983 44.7089C26.9295 44.7089 28.7448 46.5083 28.7448 48.7199C28.7447 50.9313 26.9295 52.7305 24.6983 52.7305Z" fill="black"/>
<path d="M24.6981 46.464C23.4433 46.464 22.4224 47.4759 22.4224 48.72C22.4224 49.9638 23.4433 50.9758 24.6981 50.9758C25.953 50.9758 26.9738 49.9638 26.9738 48.72C26.9738 47.4759 25.953 46.464 24.6981 46.464Z" fill="black"/>
<path d="M59.9667 45.647H55.2695V34.8728C55.2695 33.8106 54.3976 32.9463 53.3259 32.9463H52.9569V20.7805C52.9569 20.3493 52.6044 20 52.1696 20C51.7347 20 51.3822 20.3493 51.3822 20.7805V33.7268V37.8126C51.0407 37.6571 50.6615 37.5698 50.2619 37.5698C50.2604 37.5698 50.259 37.57 50.2575 37.57H47.7131L42.4851 20.5531C42.3842 20.2246 42.0783 20 41.7319 20H23.4858C23.0509 20 22.6984 20.3493 22.6984 20.7805V25.7621H20.23C19.7951 25.7621 19.4426 26.1114 19.4426 26.5426V32.8224H17.5968C16.1649 32.8224 15 33.9771 15 35.3964V48.7199C15 49.1508 15.3525 49.5004 15.7874 49.5004H16.9968C17.4316 49.5004 17.7842 49.1508 17.7842 48.7199C17.7842 44.941 20.8858 41.8666 24.6981 41.8666C28.5105 41.8666 31.6121 44.941 31.6121 48.7199C31.6121 49.1508 31.9646 49.5004 32.3994 49.5004H36.7197C37.1545 49.5004 37.507 49.1508 37.507 48.7199C37.507 44.941 40.6086 41.8666 44.421 41.8666C48.2335 41.8666 51.3351 44.941 51.3351 48.7199C51.3351 49.1508 51.6876 49.5004 52.1224 49.5004H52.1696H59.9667C61.0385 49.5004 61.9104 48.6361 61.9104 47.5736C61.9104 46.5113 61.0385 45.647 59.9667 45.647ZM46.0669 37.5701H33.3213V35.3964C33.3213 33.9771 32.1565 32.8224 30.7246 32.8224H27.5292V21.5609H41.1487L46.0669 37.5701ZM21.0174 27.323H22.6984V32.8224H21.0174V27.323ZM44.4209 40.3057C40.0056 40.3057 36.3669 43.6643 35.9684 47.9394H33.1505C32.7521 43.6643 29.1133 40.3057 24.698 40.3057C20.8746 40.3057 17.6337 42.8237 16.5746 46.275V35.3964C16.5746 34.8378 17.0331 34.3834 17.5967 34.3834H30.7245C31.288 34.3834 31.7465 34.8378 31.7465 35.3964V38.3506C31.7465 38.7818 32.099 39.1311 32.5339 39.1311H50.2602C50.2612 39.1311 50.2622 39.1311 50.2631 39.1311C50.8802 39.1317 51.382 39.6296 51.382 40.2415V43.911C49.8462 41.7334 47.299 40.3057 44.4209 40.3057ZM59.9667 47.9394H56.7629L56.4087 47.2079H59.9667C60.1702 47.2079 60.3357 47.3719 60.3357 47.5735C60.3357 47.7752 60.1701 47.9394 59.9667 47.9394Z" fill="black"/>
</svg>
